<svg xmlns="http://www.w3.org/2000/svg" width="48" height="48" viewBox="0 0 48 48"><g transform="translate(-98 -144)"><rect width="48" height="48" rx="8" transform="translate(98 144)" fill="#01abe8"/><path d="M90-860a9.738,9.738,0,0,1-3.9-.787,10.1,10.1,0,0,1-3.175-2.138,10.1,10.1,0,0,1-2.138-3.175A9.738,9.738,0,0,1,80-870a9.711,9.711,0,0,1,.787-3.912,10.138,10.138,0,0,1,2.138-3.163l1.4,1.4a7.94,7.94,0,0,0-1.712,2.55A7.948,7.948,0,0,0,82-870a7.721,7.721,0,0,0,2.325,5.675A7.721,7.721,0,0,0,90-862a7.721,7.721,0,0,0,5.675-2.325A7.721,7.721,0,0,0,98-870a7.948,7.948,0,0,0-.613-3.125,7.939,7.939,0,0,0-1.712-2.55l1.4-1.4a10.138,10.138,0,0,1,2.138,3.163A9.711,9.711,0,0,1,100-870a9.738,9.738,0,0,1-.787,3.9,10.1,10.1,0,0,1-2.138,3.175,10.1,10.1,0,0,1-3.175,2.138A9.738,9.738,0,0,1,90-860Zm-1-9v-11h2v11Z" transform="translate(32 1038)" fill="#fff"/></g></svg>