<svg xmlns="http://www.w3.org/2000/svg" width="48" height="48" viewBox="0 0 48 48"><g transform="translate(-154 -144)"><rect width="48" height="48" rx="8" transform="translate(154 144)" fill="#01abe8"/><path d="M167.588-840a8.366,8.366,0,0,1-5.434-2.859A8.448,8.448,0,0,1,160-848.618a8.594,8.594,0,0,1,.7-3.428,8.452,8.452,0,0,1,2.005-2.859l1.545,1.545a6.109,6.109,0,0,0-1.558,2.141,6.473,6.473,0,0,0-.528,2.6,6.409,6.409,0,0,0,1.518,4.214,6.28,6.28,0,0,0,3.9,2.236Zm2.168,0v-2.168a6.468,6.468,0,0,0,3.889-2.249,6.323,6.323,0,0,0,1.531-4.2,6.272,6.272,0,0,0-1.9-4.607,6.272,6.272,0,0,0-4.607-1.9h-.081l1.192,1.192-1.518,1.518-3.794-3.794L168.266-860l1.518,1.518-1.192,1.192h.081a8.37,8.37,0,0,1,6.152,2.52,8.37,8.37,0,0,1,2.52,6.152,8.413,8.413,0,0,1-2.154,5.732A8.48,8.48,0,0,1,169.756-840Z" transform="translate(9 1018)" fill="#fff"/></g></svg>