<svg xmlns="http://www.w3.org/2000/svg" width="32" height="32" viewBox="0 0 32 32"><g transform="translate(-240 -96)"><path d="M122.222-820a2.14,2.14,0,0,1-1.569-.653,2.14,2.14,0,0,1-.653-1.569v-15.556a2.14,2.14,0,0,1,.653-1.569,2.14,2.14,0,0,1,1.569-.653H130v2.222h-7.778v15.556h15.556V-830H140v7.778a2.14,2.14,0,0,1-.653,1.569,2.14,2.14,0,0,1-1.569.653Zm5.222-5.889-1.556-1.556,10.333-10.333h-4V-840H140v7.778h-2.222v-4Z" transform="translate(126 942)" fill="#01abe8"/><rect width="32" height="32" transform="translate(240 96)" fill="none"/></g></svg>