<svg xmlns="http://www.w3.org/2000/svg" width="600" height="80" viewBox="0 0 600 80"><rect width="600" height="80" fill="#01abe8"/><g transform="translate(238 24)"><path d="M74.6,1.895h-.316A1.9,1.9,0,0,0,72.394,0H51.862a1.9,1.9,0,0,0-1.895,1.895h-.632A4.106,4.106,0,0,0,45.229,6v9.793A4.106,4.106,0,0,0,49.335,19.9H74.6a4.106,4.106,0,0,0,4.106-4.106V6A4.106,4.106,0,0,0,74.6,1.895ZM75.078,15a1.738,1.738,0,0,1-1.738,1.738H50.6A1.738,1.738,0,0,1,48.859,15v-7.9A1.738,1.738,0,0,1,50.6,5.368H73.34a1.738,1.738,0,0,1,1.738,1.738Z" fill="#fff"/><path d="M17.847,10.9v3.58H44.487v-7.9Z" fill="#fff"/><path d="M15.477,8.275V7.53a14.265,14.265,0,0,0,6,1c3.663,0,6.633-.778,6.633-1.738s-2.97-1.738-6.633-1.738a13.975,13.975,0,0,0-6.061,1.034,1.413,1.413,0,0,0-2.722,0A13.974,13.974,0,0,0,6.633,5.055C2.97,5.055,0,5.833,0,6.793S2.97,8.531,6.633,8.531a14.265,14.265,0,0,0,6-1v.85a2.07,2.07,0,0,0-1.262,1.909v4.7a2.07,2.07,0,0,0,2.071,2.071h1.545a2.07,2.07,0,0,0,2.071-2.071v-4.7a2.073,2.073,0,0,0-1.578-2.01Z" fill="#fff"/><path d="M106.089,10.9v3.581H79.45v-7.9Z" fill="#fff"/><path d="M117.3,5.055a13.974,13.974,0,0,0-6.061,1.034,1.413,1.413,0,0,0-2.723,0,13.974,13.974,0,0,0-6.061-1.034c-3.663,0-6.633.778-6.633,1.738s2.97,1.738,6.633,1.738a14.267,14.267,0,0,0,6-1v.745a2.071,2.071,0,0,0-1.579,2.01v4.7a2.07,2.07,0,0,0,2.071,2.071H110.5a2.07,2.07,0,0,0,2.07-2.071v-4.7a2.072,2.072,0,0,0-1.262-1.908v-.85a14.267,14.267,0,0,0,6,1c3.663,0,6.633-.778,6.633-1.738s-2.97-1.738-6.633-1.738Z" fill="#fff"/><path d="M45.226,18.373s.632,2.475,3.79,2.159c0,0-6.949,7.582-7.9,11.688H38.274s2.527-10,6.949-13.846Z" fill="#fff"/><path d="M78.71,18.373s-.632,2.475-3.79,2.159c0,0,6.949,7.582,7.9,11.688h2.843s-2.527-10-6.949-13.846Z" fill="#fff"/><rect width="21.164" height="5.687" rx="2.843" transform="translate(51.387 8.371)" fill="#fff"/></g></svg>